<svg width="156" height="156" viewBox="0 0 156 156" fill="none" xmlns="http://www.w3.org/2000/svg">
<circle cx="78" cy="78" r="77.5" fill="#C4C4C4" fill-opacity="0.4" stroke="black"/>
<path d="M31.5613 98.5117C31.3906 98.5117 31.3053 98.4051 31.3053 98.1917L31.3693 54.2877C31.3693 54.0744 31.476 53.9677 31.6893 53.9677H38.7933C39.0066 53.9677 39.1133 54.0744 39.1133 54.2877L39.0493 90.6397H52.2333C52.4466 90.6397 52.5533 90.7464 52.5533 90.9597V98.1917C52.5533 98.4051 52.4466 98.5117 52.2333 98.5117H31.5613ZM56.7428 98.5117C56.5295 98.5117 56.4228 98.4051 56.4228 98.1917L56.4868 54.2237C56.4868 54.053 56.5721 53.9677 56.7428 53.9677H63.9108C64.0815 53.9677 64.1668 54.053 64.1668 54.2237L64.2308 98.1917C64.2308 98.4051 64.1455 98.5117 63.9748 98.5117H56.7428ZM70.1163 98.5117C69.775 98.5117 69.6043 98.3624 69.6043 98.0637L69.5403 54.4797C69.5403 54.1384 69.711 53.9677 70.0523 53.9677H75.8123L86.6283 79.1837L86.3083 54.4797C86.3083 54.1384 86.5003 53.9677 86.8843 53.9677H93.2203C93.4763 53.9677 93.6043 54.1384 93.6043 54.4797L93.6683 98.1277C93.6683 98.3837 93.5616 98.5117 93.3483 98.5117H87.7163L76.6443 74.9597L77.0923 97.9997C77.0923 98.3411 76.9003 98.5117 76.5163 98.5117H70.1163ZM99.1638 98.5117C98.9931 98.5117 98.9078 98.4051 98.9078 98.1917L99.0358 54.2877C99.0358 54.0744 99.1211 53.9677 99.2918 53.9677H106.46C106.63 53.9677 106.716 54.0744 106.716 54.2877V69.4557L116.764 54.2237C116.892 54.053 117.041 53.9677 117.212 53.9677H124.572C124.742 53.9677 124.785 54.053 124.7 54.2237L113.628 71.8877L126.044 98.2557C126.129 98.4264 126.022 98.5117 125.724 98.5117H117.916C117.702 98.5117 117.574 98.4264 117.532 98.2557L108.892 79.4397L106.652 82.9597V98.1917C106.652 98.4051 106.566 98.5117 106.396 98.5117H99.1638Z" fill="black"/>
</svg>
