<svg width="156" height="156" viewBox="0 0 156 156" fill="none" xmlns="http://www.w3.org/2000/svg">
<circle cx="78" cy="78" r="77.5" fill="#C4C4C4" fill-opacity="0.4" stroke="black"/>
<path d="M61.1555 90.8317L43.4275 76.6877C43.0862 76.3464 42.9155 75.9624 42.9155 75.5357C42.9155 75.1091 43.0862 74.7677 43.4275 74.5117L60.7075 60.7517C60.8355 60.6237 60.9848 60.645 61.1555 60.8157L64.2915 64.7197C64.4195 64.9757 64.4408 65.1464 64.3555 65.2317L51.5555 75.5997L64.8035 86.3517C64.9315 86.4797 64.9315 86.6504 64.8035 86.8637L61.6035 90.7677C61.4328 90.9384 61.2835 90.9597 61.1555 90.8317ZM70.6775 98.5117C70.4642 98.5117 70.3788 98.4051 70.4215 98.1917L78.3575 54.2237C78.4002 54.053 78.5068 53.9677 78.6775 53.9677H85.3335C85.5468 53.9677 85.6322 54.053 85.5895 54.2237L77.5255 98.1917C77.4828 98.4051 77.3762 98.5117 77.2055 98.5117H70.6775ZM93.4505 90.8317C93.3225 90.9597 93.1732 90.9384 93.0025 90.7677L89.8025 86.8637C89.6745 86.6504 89.6745 86.4797 89.8025 86.3517L103.051 75.5997L90.2505 65.2317C90.1652 65.1464 90.1865 64.9757 90.3145 64.7197L93.4505 60.8157C93.6212 60.645 93.7705 60.6237 93.8985 60.7517L111.179 74.5117C111.52 74.7677 111.691 75.1091 111.691 75.5357C111.691 75.9624 111.52 76.3464 111.179 76.6877L93.4505 90.8317Z" fill="black"/>
</svg>
